# xmcd
#
# Track frame offsets:
#	150
#	15012
#	31590
#	48066
#	62609
#	75772
#	94844
#	111487
#	126486
#	144171
#	161641
#	179195
#	194937
#	213684
#	230403
#	247248
#	262694
#
# Disc length: 3787 seconds
#
# Revision: 0
# Processed by: cddbd v1.5.2PL0 Copyright (c) Steve Scherf et al.
# Submitted via: EasyCDDAExtractor 11.0.3.1
#
DISCID=e60ec911
DTITLE=Kenny Rogers - A Love Song Collection
DYEAR=2008
DGENRE=Country
TTITLE0=A Love Song
TTITLE1=Love Will Turn You Around
TTITLE2=You Decorated My Life
TTITLE3=Love The World Away
TTITLE4=You Are So Beautiful
TTITLE5=She Believes In Me
TTITLE6=Don’t Fall In Love With A Dreamer (with Kim Carnes)
TTITLE7=Share Your Love With Me
TTITLE8=Lady
TTITLE9=We’ve Got Tonight (With Sheena Easton)
TTITLE10=All My Life
TTITLE11=Love Is What We Make It
TTITLE12=Islands In The Stream (With Dolly Parton)
TTITLE13=Crazy
TTITLE14=Buy Me A Rose (With Alison Krauss and Billy Dean)
TTITLE15=I Can’t Unlove You
TTITLE16=Through The Years
EXTD=
EXTT0=
EXTT1=
EXTT2=
EXTT3=
EXTT4=
EXTT5=
EXTT6=
EXTT7=
EXTT8=
EXTT9=
EXTT10=
EXTT11=
EXTT12=
EXTT13=
EXTT14=
EXTT15=
EXTT16=
PLAYORDER=
